# xmcd
#
# Track frame offsets:
#	150
#	11562
#	29332
#	30677
#	50250
#	63805
#	65457
#	81845
#	96210
#	98940
#	120525
#	123930
#	147212
#	148467
#	168940
#	170755
#	192402
#
# Disc length: 2910 seconds
# Revision: 3
# Processed by: cddbd v1.5.2PL0 Copyright (c) Steve Scherf et al.
# Submitted via: dBpowerAMP V12.0
#
DISCID=ed0b5c11
DTITLE=Guy Davis - Stomp Down Rider
DYEAR=1995
DGENRE=Blues
TTITLE0=(I Believe I'll) Dust My Broom
TTITLE1=If I Had Possession Over Judgement Day
TTITLE2=Intro
TTITLE3=Wintertime Blues
TTITLE4=Georgia Rag
TTITLE5=Intro
TTITLE6=Candy Man
TTITLE7=Madison and The Pigs
TTITLE8=Intro
TTITLE9=Stomp Down Rider Variation (Ft. Worth and Dallas Blues/Stomp Down Rider)
TTITLE10=Intro
TTITLE11=Watch Over Me
TTITLE12=Intro
TTITLE13=Walkin' Blues
TTITLE14=Intro
TTITLE15=Take Me Back, Babe
TTITLE16=Ramblin' All Over
EXTD=
EXTT0=
EXTT1=
EXTT2=
EXTT3=
EXTT4=
EXTT5=
EXTT6=
EXTT7=
EXTT8=
EXTT9=
EXTT10=
EXTT11=
EXTT12=
EXTT13=
EXTT14=
EXTT15=
EXTT16=
PLAYORDER=
